<svg width="24" height="24" viewBox="0 0 24 24" fill="none" xmlns="http://www.w3.org/2000/svg">
<path fill-rule="evenodd" clip-rule="evenodd" d="M2.80398 8.35296C2.52398 10.956 2.53598 13.958 2.92598 16.55C3.03066 17.2468 3.36685 17.8882 3.8804 18.3707C4.39395 18.8532 5.05496 19.1488 5.75698 19.21L7.26698 19.341C10.417 19.615 13.583 19.615 16.733 19.341L18.243 19.211C18.945 19.1498 19.606 18.8542 20.1196 18.3717C20.6331 17.8892 20.9693 17.2478 21.074 16.551C21.464 13.958 21.476 10.956 21.196 8.35296C21.1598 8.05103 21.1192 7.74967 21.074 7.44896C20.9693 6.75211 20.6331 6.11077 20.1196 5.62824C19.606 5.14572 18.945 4.85008 18.243 4.78896L16.733 4.65896C13.5836 4.38516 10.4164 4.38516 7.26698 4.65896L5.75698 4.78896C5.05496 4.85008 4.39395 5.14572 3.8804 5.62824C3.36685 6.11077 3.03066 6.75211 2.92598 7.44896C2.8809 7.74968 2.84022 8.05105 2.80398 8.35296ZM7.39698 6.15296C10.4595 5.88674 13.5394 5.88674 16.602 6.15296L18.112 6.28396C18.4786 6.31597 18.8238 6.47036 19.0921 6.72229C19.3603 6.97423 19.536 7.30907 19.591 7.67296L19.625 7.90596L14.064 10.996C13.4326 11.3467 12.7222 11.5308 12 11.5308C11.2777 11.5308 10.5674 11.3467 9.93598 10.996L4.37498 7.90596L4.40898 7.67296C4.46353 7.30908 4.63901 6.97416 4.90713 6.72218C5.17526 6.4702 5.52042 6.31584 5.88698 6.28396L7.39698 6.15296ZM19.808 9.51996C20.0023 11.7896 19.9295 14.0743 19.591 16.327C19.5364 16.6908 19.361 17.0258 19.0928 17.2777C18.8247 17.5297 18.4795 17.6841 18.113 17.716L16.603 17.847C13.5401 18.1132 10.4599 18.1132 7.39698 17.847L5.88698 17.716C5.52042 17.6841 5.17526 17.5297 4.90713 17.2777C4.63901 17.0258 4.46353 16.6908 4.40898 16.327C4.07013 14.0743 3.99696 11.7897 4.19098 9.51996L9.20698 12.307C10.0612 12.7815 11.0223 13.0306 11.9995 13.0306C12.9767 13.0306 13.9378 12.7815 14.792 12.307L19.808 9.51996Z" fill="white" fill-opacity="0.8"/>
<circle cx="20" cy="6" r="4" fill="#FF1C1C"/>
</svg>
