<svg width="21" height="21" viewBox="0 0 21 21" fill="none" xmlns="http://www.w3.org/2000/svg">
<g clip-path="url(#clip0_118_107)">
<path d="M17.8556 13.4602C17.789 13.38 17.7236 13.2997 17.6595 13.2223C16.7772 12.1552 16.2434 11.5111 16.2434 8.49005C16.2434 6.92599 15.8692 5.64266 15.1317 4.68016C14.5879 3.96911 13.8528 3.42971 12.8839 3.03107C12.8714 3.02414 12.8603 3.01504 12.851 3.0042C12.5025 1.83717 11.5488 1.05554 10.4732 1.05554C9.3976 1.05554 8.44433 1.83717 8.09582 3.003C8.08652 3.01344 8.07554 3.02225 8.06334 3.02907C5.80226 3.95989 4.70341 5.74572 4.70341 8.48885C4.70341 11.5111 4.17043 12.1552 3.28733 13.2211C3.22316 13.2985 3.1578 13.3771 3.09122 13.459C2.91926 13.6663 2.8103 13.9187 2.77725 14.186C2.7442 14.4534 2.78844 14.7247 2.90474 14.9677C3.15218 15.489 3.67955 15.8127 4.28151 15.8127H16.6693C17.2684 15.8127 17.7922 15.4894 18.0405 14.9705C18.1572 14.7274 18.2019 14.4559 18.1691 14.1883C18.1364 13.9206 18.0276 13.6679 17.8556 13.4602ZM10.4732 19.0222C11.0527 19.0217 11.6213 18.8644 12.1187 18.567C12.616 18.2695 13.0236 17.843 13.2981 17.3326C13.3111 17.3082 13.3175 17.2808 13.3167 17.2531C13.3159 17.2255 13.308 17.1985 13.2937 17.1748C13.2794 17.1511 13.2592 17.1315 13.2351 17.1179C13.211 17.1043 13.1838 17.0972 13.1562 17.0972H7.79103C7.76333 17.0971 7.73607 17.1042 7.71192 17.1178C7.68777 17.1313 7.66754 17.1509 7.6532 17.1746C7.63886 17.1983 7.63091 17.2253 7.63012 17.253C7.62932 17.2807 7.63571 17.3081 7.64866 17.3326C7.92319 17.8429 8.33069 18.2694 8.82797 18.5669C9.32524 18.8643 9.89374 19.0217 10.4732 19.0222Z" fill="white" fill-opacity="0.8"/>
<circle cx="16.9999" cy="3.93328" r="3.73333" fill="#FF1C1C"/>
</g>
<defs>
<clipPath id="clip0_118_107">
<rect width="20.5333" height="20.5333" fill="white" transform="translate(0.199951 0.199951)"/>
</clipPath>
</defs>
</svg>
