<svg width="21" height="21" viewBox="0 0 21 21" fill="none" xmlns="http://www.w3.org/2000/svg">
<g clip-path="url(#clip0_118_113)">
<path fill-rule="evenodd" clip-rule="evenodd" d="M6.68759 4.33345V3.45296C6.68759 2.59021 7.03032 1.76279 7.64038 1.15274C8.25043 0.542678 9.07785 0.199951 9.9406 0.199951C10.8034 0.199951 11.6308 0.542678 12.2408 1.15274C12.8509 1.76279 13.1936 2.59021 13.1936 3.45296V4.33345C14.31 4.36728 14.9936 4.48699 15.515 4.91985C16.2376 5.52014 16.4284 6.53508 16.8092 8.56583L17.4598 12.0357C17.9951 14.8914 18.2622 16.3193 17.4824 17.2596C16.7017 18.2 15.2487 18.2 12.3435 18.2H7.53771C4.63169 18.2 3.17954 18.2 2.39882 17.2596C1.6181 16.3193 1.88701 14.8914 2.42137 12.0357L3.07198 8.56583C3.45366 6.53595 3.64364 5.52014 4.36624 4.91985C4.88759 4.48699 5.57116 4.36728 6.68759 4.33345ZM7.98879 3.45296C7.98879 2.93531 8.19443 2.43886 8.56047 2.07283C8.9265 1.70679 9.42295 1.50116 9.9406 1.50116C10.4583 1.50116 10.9547 1.70679 11.3207 2.07283C11.6868 2.43886 11.8924 2.93531 11.8924 3.45296V4.32043H7.98879V3.45296Z" fill="white" fill-opacity="0.8"/>
</g>
<defs>
<clipPath id="clip0_118_113">
<rect width="20.5333" height="20.5333" fill="white" transform="translate(0.199951 0.199951)"/>
</clipPath>
</defs>
</svg>
